<?xml version="1.0" encoding="UTF-8" standalone="no"?>
<svg width="103px" height="130px" viewBox="0 0 103 130" version="1.1" xmlns="http://www.w3.org/2000/svg" xmlns:xlink="http://www.w3.org/1999/xlink" xmlns:sketch="http://www.bohemiancoding.com/sketch/ns">
    <!-- Generator: Sketch 3.4 (15575) - http://www.bohemiancoding.com/sketch -->
    <title>award</title>
    <desc>Created with Sketch.</desc>
    <defs>
        <linearGradient x1="50%" y1="68.4192518%" x2="50%" y2="98.062557%" id="linearGradient-1">
            <stop stop-color="#E1E1E1" offset="0%"></stop>
            <stop stop-color="#FAFAFA" offset="100%"></stop>
        </linearGradient>
        <filter x="-50%" y="-50%" width="200%" height="200%" filterUnits="objectBoundingBox" id="filter-2">
            <feOffset dx="0" dy="0" in="SourceAlpha" result="shadowOffsetOuter1"></feOffset>
            <feGaussianBlur stdDeviation="2" in="shadowOffsetOuter1" result="shadowBlurOuter1"></feGaussianBlur>
            <feColorMatrix values="0 0 0 0 0   0 0 0 0 0   0 0 0 0 0  0 0 0 0.0484459918 0" in="shadowBlurOuter1" type="matrix" result="shadowMatrixOuter1"></feColorMatrix>
            <feMerge>
                <feMergeNode in="shadowMatrixOuter1"></feMergeNode>
                <feMergeNode in="SourceGraphic"></feMergeNode>
            </feMerge>
        </filter>
    </defs>
    <g id="SPD3.0" stroke="none" stroke-width="1" fill="none" fill-rule="evenodd" sketch:type="MSPage">
        <g id="010-Finish" sketch:type="MSArtboardGroup" transform="translate(-785.000000, -102.000000)">
            <g id="Next-Steps-+-Line-+-Design-Your-Security-+-Title-Progress-+-award" sketch:type="MSLayerGroup" transform="translate(314.000000, 105.000000)">
                <g id="award" transform="translate(471.000000, 0.000000)" sketch:type="MSShapeGroup">
                    <path d="M52,58 L52,114.179745 L82,127 L82,58 L52,58 Z" id="Shape" fill="url(#linearGradient-1)"></path>
                    <path d="M22,58 L22,114.179745 L52,127 L52,58 L22,58 Z" id="Shape-Copy" fill="url(#linearGradient-1)" transform="translate(37.000000, 92.500000) scale(-1, 1) translate(-37.000000, -92.500000) "></path>
                    <circle id="Mask" fill="#3498DB" cx="51.5" cy="64.5" r="51.5"></circle>
                    <g id="Shape-+-Shape" transform="translate(24.000000, 57.000000)">
                        <path d="M28,0 L9.76996262e-14,0 L9.76996262e-14,63 L27.3045788,51.1943621 L28,51.4894345 L28,0 Z" id="Shape" fill="#2ECC71"></path>
                        <path d="M28,0 L28,51.2945495 L55,63 L55,0 L28,0 Z" id="Shape" fill="#1FB15D"></path>
                    </g>
                    <g id="Group" transform="translate(8.000000, 0.000000)">
                        <path d="M80.6801614,53.8963111 C81.9851856,49.8864129 88,46.4454775 88,42.0010491 C88,38.744789 84.7735012,36.0262599 82.5335952,33.2276143 C82.1335148,33.2724252 81.7279911,33.2995834 81.3143025,33.2995834 C75.5539611,33.2995834 70.178731,28.3513716 70.4168741,22.4254671 C70.4454513,21.7247873 70.5352653,21.0675605 70.6441307,20.4184811 C70.178731,20.1387523 69.7187746,19.8495182 69.2370452,19.5928739 C65.0634172,17.3672649 63.2154267,12.3864634 64.1135664,7.94475078 C62.1744012,4.96686154 60.5904093,1.20274437 57.599332,0.234556939 C53.582198,-1.06767552 48.453276,3.52883842 44.0006804,3.52883842 C39.5480848,3.52883842 34.4191628,-1.06903343 30.400668,0.231841126 C26.235205,1.58160032 24.8036247,8.35212277 21.337622,10.8696817 C17.836238,13.4116829 10.9491394,12.697424 8.40168865,16.1913177 C5.87873258,19.6499059 8.67249138,25.9519506 7.31983856,30.1085028 C6.01617517,34.1184011 -9.9475983e-13,37.5579786 -9.9475983e-13,42.0010491 C-9.9475983e-13,46.4441196 6.01481436,49.8864129 7.31983856,53.8963111 C8.34861676,57.0575178 6.98099494,61.4625669 7.37971454,64.9130076 C10.4347503,63.8198928 13.9511033,63.9950627 16.7353364,65.6747932 C17.7954134,65.9667432 18.8296349,66.4148524 19.791733,66.899625 C21.3063232,67.6654844 22.7093262,68.7667466 23.8741862,69.9970101 C25.4105494,71.6224243 27.2530966,72.8852775 28.8003464,74.4848915 C31.3110551,77.0784931 32.3316684,80.6402822 31.7927846,83.9902379 C35.5608889,84.0852913 40.0434225,80.4759755 43.996598,80.4759755 C48.4491936,80.4759755 53.5794764,85.0697736 57.5966103,83.7675412 C61.7607126,82.4204978 63.1922928,75.6486174 66.6582956,73.1297006 C70.1583188,70.5890573 77.0454173,71.3046741 79.5942289,67.8121383 C82.1212674,64.3521922 79.3275086,58.0487896 80.6801614,53.8963111 L80.6801614,53.8963111 Z" id="Shape" fill="#EAD57D" filter="url(#filter-2)"></path>
                        <path d="M25,42.6043922 C25,43.7666564 25.1197353,44.8989793 25.3238296,46 L47,24.3239097 C45.8951698,24.1197649 44.7617663,24 43.5997897,24 C33.3270456,24 25,32.3291061 25,42.6043922 L25,42.6043922 Z" id="Shape"></path>
                        <path d="M25.4980612,42.2367612 C25.4980612,31.8880717 33.8855462,23.4994651 44.232852,23.4994651 C45.4032625,23.4994651 46.5462629,23.6200856 47.6577417,23.8256887 L56,15.4836855 C52.3969448,13.8964295 48.422483,13 44.232852,13 C28.0883139,13 15,26.0900642 15,42.2367612 C15,46.424211 15.8949392,50.3978336 17.4819829,54 L25.8256117,45.6566261 C25.6186656,44.54774 25.4980612,43.4073282 25.4980612,42.2367612 L25.4980612,42.2367612 Z" id="Shape" fill="#D6C169"></path>
                        <path d="M73,43 L45,71 C60.2136752,70.4255007 72.4201709,58.2187592 73,43 L73,43 Z" id="Shape" fill="#D6C169"></path>
                        <path d="M73.3483917,42.8780395 C73.3483917,43.257506 73.3075527,43.6246433 73.2912171,44 L83,34.233875 C82.1287688,33.1365729 81.3664415,32.0283116 80.9988908,30.8775829 C79.651205,26.6842726 82.4418675,20.3292363 79.9234648,16.8359527 C77.377836,13.3152707 70.4883029,14.0413258 66.9761521,11.4795845 C65.8612484,10.6576354 64.9491782,9.38361429 64.0915599,8 L56,16.1400358 C66.2111021,20.6676053 73.3483917,30.9282697 73.3483917,42.8780395 L73.3483917,42.8780395 Z" id="Shape" fill="#FFEF97"></path>
                        <path d="M44.3375397,61 C54.6448971,61 63,52.6445888 63,42.3382163 C63,33.1977787 56.4251347,25.6055496 47.7492067,24 L26,45.7445482 C27.6027599,54.4235268 35.1947089,61 44.3375397,61 L44.3375397,61 Z" id="Shape" fill="#FFEF97"></path>
                        <path d="M17.1906853,54 L7,63.9995525 C7.02735387,65.5017004 7.3008926,66.8991409 8.10783185,67.9985681 C10.6654189,71.4485413 17.5859487,70.7384106 21.1145983,73.260784 C24.5885402,75.7469125 26.0382954,82.4293897 30.2234379,83.7717917 C30.7431615,83.9342223 31.2628851,84 31.8099626,84 L45,71.0579023 C44.6279873,71.0713263 44.2628131,71.1129408 43.8880651,71.1129408 C31.9549381,71.1129408 21.7109128,64.0720422 17.1906853,54 L17.1906853,54 Z" id="Shape" fill="#FFEF97"></path>
                        <path d="M73,42.7579318 C73,30.7992558 65.8125337,20.530944 55.529645,16 L47.1851652,24.3435174 C55.8970379,25.9557383 62.4991432,33.5795143 62.4991432,42.7579318 C62.4991432,53.1084998 54.1094247,61.4972581 43.7593635,61.4972581 C34.5786536,61.4972581 26.9552509,54.8920877 25.3458507,46.1784175 L17,54.5233059 C21.5307222,64.8094399 31.7985312,72 43.7593635,72 C44.1349816,72 44.5010037,71.957501 44.87388,71.9437916 L72.9424235,43.8820995 C72.9588739,43.505092 73,43.1376812 73,42.7579318 L73,42.7579318 Z" id="Shape" fill="#EBDB83"></path>
                    </g>
                </g>
            </g>
        </g>
    </g>
</svg>