<?xml version="1.0" encoding="UTF-8" standalone="no"?>
<svg width="70px" height="70px" viewBox="0 0 70 70" version="1.1" xmlns="http://www.w3.org/2000/svg" xmlns:xlink="http://www.w3.org/1999/xlink" xmlns:sketch="http://www.bohemiancoding.com/sketch/ns">
    <!-- Generator: Sketch 3.3.3 (12072) - http://www.bohemiancoding.com/sketch -->
    <title>trophy-cup</title>
    <desc>Created with Sketch.</desc>
    <defs></defs>
    <g id="SPD3.0" stroke="none" stroke-width="1" fill="none" fill-rule="evenodd" sketch:type="MSPage">
        <g id="001-FTUX" sketch:type="MSArtboardGroup" transform="translate(-1263.000000, -252.000000)">
            <g id="Steps" sketch:type="MSLayerGroup" transform="translate(323.000000, 244.000000)">
                <g id="trophy-cup" sketch:type="MSShapeGroup">
                    <g transform="translate(940.000000, 8.000000)">
                        <path d="M35,0 C15.6679688,0 0,15.6679688 0,35 C0,48.5521094 7.69453125,60.2984375 18.9601563,66.1171875 C19.0203125,66.1483594 19.0815625,66.1778906 19.1422656,66.2079688 L19.1422656,60.2929688 L43.2047656,60.2929688 L43.2047656,60.3389063 L50.9977344,60.3389063 L50.9977344,66.1335938 C51.0742969,66.0964063 51.1503125,66.0575781 51.2257813,66.0192969 C62.3875,60.1666406 70,48.475 70,35 C70,15.6679688 54.3325781,0 35,0 L35,0 Z" id="Shape" fill="#3FBD74"></path>
                        <g id="Group" transform="translate(12.031250, 20.781250)">
                            <path d="M2.08414063,0.181015625 C1.220625,0.181015625 0.520625,0.76453125 0.520625,1.48476563 L0.520625,2.78796875 C0.520625,11.1458594 6.93820313,18.003125 15.1150781,18.7080469 L15.1150781,0.181015625 L2.08414063,0.181015625 L2.08414063,0.181015625 Z" id="Shape" fill="#FFEF97"></path>
                            <path d="M5.99320312,3.31953125 C5.1296875,3.31953125 4.4296875,3.64765625 4.4296875,4.05179687 L4.4296875,4.7840625 C4.4296875,9.48335937 8.03742187,13.3366406 12.6328125,13.733125 L12.6328125,3.31953125 L5.99320312,3.31953125 L5.99320312,3.31953125 Z" id="Shape" fill="#3FBD74"></path>
                        </g>
                        <path d="M21.7399219,14.4921875 L21.7399219,20.5499219 C22.4344531,21.4435156 22.8642969,22.6121875 22.859375,24.0625 C22.833125,32.2902344 26.849375,39.0457812 31.2303906,45.70125 C32.676875,47.0782812 33.7405469,48.6341406 33.9926562,50.7483594 C34.234375,52.7767188 34.2983594,54.8264062 34.3464844,56.875 L35.0924219,56.875 L35.0924219,14.4921875 L21.7399219,14.4921875 L21.7399219,14.4921875 Z" id="Shape" fill="#EAD57D"></path>
                        <g id="Group" transform="translate(42.656250, 20.781250)">
                            <path d="M13.2994531,0.181015625 C14.1624219,0.181015625 14.8629687,0.76453125 14.8629687,1.48476563 L14.8629687,2.78796875 C14.8629687,11.1458594 8.44484375,18.003125 0.26796875,18.7080469 L0.26796875,0.181015625 L13.2994531,0.181015625 L13.2994531,0.181015625 Z" id="Shape" fill="#C2AD55"></path>
                            <path d="M9.39039062,3.31953125 C10.2533594,3.31953125 10.9539062,3.64765625 10.9539062,4.05179687 L10.9539062,4.7840625 C10.9539062,9.48335937 7.345625,13.3366406 2.75023437,13.733125 L2.75023437,3.31953125 L9.39039062,3.31953125 L9.39039062,3.31953125 Z" id="Shape" fill="#3FBD74"></path>
                        </g>
                        <path d="M34.759375,51.5429688 L34.759375,56.875 L33.840625,56.875 L33.840625,51.5429688 C33.840625,49.4921875 32.921875,47.4638281 31.8007813,46.6648438 C25.9328125,42.4703125 20.51875,32.0796875 20.3054688,15.5859375 C20.3,15.028125 20.7101563,14.5742188 21.2460938,14.503125 C21.2953125,14.4976562 21.3445313,14.4921875 21.39375,14.4921875 L23.9804688,14.4921875 C23.4554688,14.4921875 23.034375,14.9789062 23.034375,15.5859375 C23.0398438,16.0289062 23.0453125,16.4664062 23.0617188,16.9039062 C23.471875,32.6320312 28.0492188,42.5851563 32.9929688,46.6642969 C33.9664063,47.4638281 34.759375,49.4921875 34.759375,51.5429688 L34.759375,51.5429688 Z" id="Shape" fill="#FFEF97"></path>
                        <path d="M48.7921875,14.4921875 L35.0016406,14.4921875 L35.0016406,56.875 L36.3453125,56.875 L36.3453125,51.5429688 C36.3453125,49.4921875 37.2689844,47.4638281 38.3851562,46.6648438 C44.253125,42.4703125 49.6666406,32.0796875 49.8804687,15.5859375 C49.8859375,14.9789062 49.3992187,14.4921875 48.7921875,14.4921875 L48.7921875,14.4921875 Z" id="Shape" fill="#D6C169"></path>
                        <rect id="Rectangle-path" fill="#EAD57D" x="26.6164063" y="54.6875" width="18.046875" height="6.5625"></rect>
                        <path d="M18.9601563,60.15625 L18.9601563,66.1171875 C20.3929688,66.8603906 21.8859375,67.5002344 23.428125,68.0421875 C23.5107031,68.0711719 23.5949219,68.0957813 23.6780469,68.1242188 C23.8607031,67.7140625 24.2774219,67.4192969 24.8374219,67.580625 C28.2466406,68.5578906 31.7291406,68.3210938 35.2302344,68.3648438 C37.4953906,68.3927344 39.8075781,68.5677344 42.0213281,67.9492188 C43.2758594,67.5986719 44.4560156,67.274375 45.7575781,67.2027344 C46.3323438,67.1704688 46.6544531,67.5423438 46.7260938,67.9771094 C46.7364844,67.9727344 46.7474219,67.9694531 46.7583594,67.9661719 C48.3,67.4247656 49.7935156,66.7679688 51.2263281,66.01875 L51.2263281,60.15625 L18.9601563,60.15625 L18.9601563,60.15625 Z" id="Shape" fill="#8A7469"></path>
                        <path d="M46.7578125,64.2578125 L46.7578125,67.9661719 C43.0828125,69.2841406 39.1289063,70 35,70 C30.9476563,70 27.0484375,69.3109375 23.428125,68.0421875 L23.428125,64.2578125 L46.7578125,64.2578125 L46.7578125,64.2578125 Z" id="Shape" fill="#EAD57D"></path>
                        <path d="M21.7853125,14.2969531 L21.7853125,16.9055469 L50.3846875,16.9055469 C51.2454688,16.9055469 51.9492969,16.2017188 51.9492969,15.3403906 L51.9492969,14.2975 L21.7853125,14.2975 L21.7853125,14.2969531 Z" id="Shape" fill="#EAD57D"></path>
                        <path d="M22.1046875,14.2969531 L18.2360937,14.2969531 L18.2360937,15.3398438 C18.2360937,16.2011719 18.9399219,16.905 19.8007031,16.905 L22.1046875,16.905 L22.1046875,14.2969531 L22.1046875,14.2969531 Z" id="Shape" fill="#FFEF97"></path>
                    </g>
                </g>
            </g>
        </g>
    </g>
</svg>