<?xml version="1.0" encoding="UTF-8" standalone="no"?>
<svg width="69px" height="69px" viewBox="0 0 69 69" version="1.1" xmlns="http://www.w3.org/2000/svg" xmlns:xlink="http://www.w3.org/1999/xlink" xmlns:sketch="http://www.bohemiancoding.com/sketch/ns">
    <!-- Generator: Sketch 3.3.3 (12072) - http://www.bohemiancoding.com/sketch -->
    <title>Group</title>
    <desc>Created with Sketch.</desc>
    <defs></defs>
    <g id="SPD3.0" stroke="none" stroke-width="1" fill="none" fill-rule="evenodd" sketch:type="MSPage">
        <g id="001-FTUX" sketch:type="MSArtboardGroup" transform="translate(-524.000000, -254.000000)">
            <g id="Steps" sketch:type="MSLayerGroup" transform="translate(323.000000, 244.000000)">
                <g id="globe" transform="translate(200.000000, 9.000000)" sketch:type="MSShapeGroup">
                    <g id="Group" transform="translate(0.536358, 0.450805)">
                        <path d="M66.3176983,21.3725984 C66.3080439,21.2901073 66.3134075,21.2161315 66.3144802,21.1394946 C66.1492819,20.7595036 65.9873017,20.3784481 65.8086944,20.0059079 C60.2997596,8.49973614 48.4837891,0.549194991 34.7905649,0.549194991 C21.9608774,0.549194991 10.7724459,7.53698569 4.88323317,17.8829606 C4.829061,17.9776923 4.78239784,18.0761494 4.72876202,18.1719454 C4.93847806,18.5625805 4.99104117,19.0436896 4.74967999,19.5450224 C4.01647837,21.0665832 3.27898588,22.585483 2.47015775,24.0687254 C2.33606821,24.314602 2.16496995,24.4854383 1.97617187,24.6057156 C1.94935397,24.6929964 1.91663612,24.7776163 1.89035457,24.8648971 L1.89035457,24.8707513 C1.76699219,25.2699016 1.65435697,25.6743739 1.54708534,26.083636 L1.5449399,26.0932156 C1.49774038,26.2869365 1.45000451,26.4811896 1.40226863,26.6749106 C1.09332632,27.9495304 0.858401442,29.2528891 0.701248498,30.5796646 C0.6948122,30.6344812 0.692666767,30.6892979 0.686766827,30.7441145 C0.617576623,31.3518873 0.560186298,31.9623211 0.523713942,32.5791413 C0.484023437,33.2507782 0.463641827,33.9282692 0.463641827,34.6100179 C0.463641827,35.1395572 0.48026893,35.6653712 0.504405048,36.1895886 C0.510304988,36.318381 0.516741286,36.4471735 0.5242503,36.575966 C0.554286358,37.0932648 0.591295072,37.6079025 0.643858173,38.1188148 C0.643858173,38.1220081 0.644394531,38.1257335 0.644394531,38.1289267 C1.69190204,48.2487165 7.20566406,57.052907 15.1963281,62.5744857 C15.3127178,62.6548479 15.4317894,62.7325492 15.5497882,62.8113148 C15.7578951,62.9518157 15.9665385,63.0912522 16.1778636,63.2269633 C16.3376983,63.329678 16.5002148,63.4297317 16.662195,63.5297853 C16.8338296,63.6356932 17.0054642,63.7410689 17.1787079,63.8443157 C17.3632151,63.953949 17.5487951,64.0614535 17.7354477,64.1678936 C17.8094651,64.2099374 17.8813371,64.25411 17.9558909,64.2956216 C17.9671544,64.2998792 17.9778816,64.3046691 17.9886088,64.3089267 C22.6651157,66.9214982 28.0179703,68.4813775 33.7248212,68.6559392 L33.740912,68.6559392 C33.7977659,68.6575358 33.8556926,68.6570036 33.9125466,68.6586002 C33.9747641,67.9571601 34.101881,67.2780725 34.2788792,66.6170796 C37.369375,66.4201655 40.4378801,66.0183542 43.5037034,65.5542755 C43.1105529,66.2876476 42.7570928,67.0407111 42.4626322,67.813466 C42.6020853,67.781534 42.7420748,67.7527952 42.8809916,67.7192665 L42.8863552,67.7192665 C51.3876322,65.6809392 58.6611854,60.5026297 63.3752374,53.482907 C63.5398993,53.2423524 63.6938341,52.9932826 63.8488416,52.7447451 C63.5849534,52.1587925 63.2609931,51.745805 62.8501427,51.735161 C62.6709991,51.7303712 62.4923918,51.7362254 62.3132482,51.737822 C64.0902028,49.124186 65.5517788,46.3013953 66.59875,43.3242665 C69.1421605,36.0884705 67.1565625,28.7302683 66.3176983,21.3725984 L66.3176983,21.3725984 Z" id="Shape" fill="#3498DB"></path>
                        <path d="M56.4043594,9.6386449 L53.1479614,9.59447227 L52.6764783,8.09898927 L42.588671,8.94146243 L38.2455554,9.40713775 L25.6201071,9.99841234 L25.4082347,10.0085242 L27.6664188,13.3645796 L28.081045,13.3911896 L29.9036839,13.5093381 L38.8189518,14.0846467 L39.4384774,15.8967889 L39.4883613,16.043144 L40.7043478,19.6035644 L42.6836113,23.6248703 L42.990424,23.5849553 L44.8511462,23.3438685 L45.5811673,21.9181038 L52.2586338,18.7291592 L52.5826108,18.5742889 L52.8647497,15.7674642 L54.1558303,11.2336494 L55.6856025,10.1468962 L56.4043594,9.6386449 Z" id="Shape" fill="#2ECC71"></path>
                        <path d="M42.2121282,54.957102 L41.8366582,52.7165385 L38.564705,50.7952952 L37.2130128,50.0023166 L37.1486465,50.0081708 L33.0667508,50.3748569 L33.056023,50.4014669 L32.3957322,52.1854025 L30.7120172,56.7351834 L34.1985247,63.8453801 L33.9759247,66.1194723 L33.976461,66.1194723 L33.7265053,68.6564714 L33.7265053,68.6724374 C34.075156,68.6836136 34.4238068,68.6884034 34.7778214,68.6884034 C37.5670274,68.6884034 40.2757756,68.3584392 42.8718827,67.7357648 L42.8826104,67.7197987 L44.7599607,64.9683229 L45.8273683,62.147661 C45.8262956,62.1481932 45.8252228,62.1487254 45.8246864,62.1492576 L47.6028053,57.4424776 L42.2121282,54.957102 L42.2121282,54.957102 Z" id="Shape" fill="#2ECC71"></path>
                        <path d="M66.5028944,21.6030411 C66.3167685,21.1543962 66.1156239,20.7142665 65.9107245,20.2767979 C65.8715684,20.1932424 65.8372397,20.1070259 65.7975471,20.0240027 L65.7975471,20.0240027 L65.7975471,20.0234705 L62.8581531,27.8367039 L61.2436319,29.6515072 L59.3716455,31.7643426 L60.2191351,34.1007021 L59.7417517,34.1911762 L57.392382,34.6595125 L57.0115481,37.4594186 L57.8048627,39.7265921 L57.8375822,39.8117442 L57.6015725,40.0719902 L54.8343583,43.3503444 L54.4642521,50.215729 L56.7326275,52.2806664 L58.5413204,52.2806664 L58.540784,52.2811986 L62.9069642,52.2811986 L63.0678799,52.850653 L63.3634285,53.4999374 C63.5887105,53.158797 63.8139925,52.8187209 64.0285468,52.4722585 C64.2425648,52.1215385 64.4571191,51.7702862 64.6663095,51.4078578 C65.7283534,49.5510107 66.6133899,47.5818694 67.3155189,45.532898 C68.4741121,42.1055277 69.1070473,38.4386673 69.1070473,34.6281127 C69.106511,30.0139356 68.1807091,25.613703 66.5028944,21.6030411 L66.5028944,21.6030411 Z" id="Shape" fill="#2ECC71"></path>
                        <path d="M30.0522627,49.5339803 L29.966441,49.1507961 L29.6767927,47.8522272 L27.9389028,47.5494052 L28.5450187,45.7926118 L28.1534571,44.7016011 L28.0729992,44.4833989 L25.9006368,46.4472182 L25.8148151,46.2982021 L24.2056578,43.6425224 L25.2462462,41.0240966 L27.928175,40.6622004 L28.7327537,40.5557603 L30.1434483,43.174186 L30.7978389,43.2327281 L31.1840367,43.2646601 L30.7120172,40.087424 L32.5035457,39.2465474 L33.5387702,35.1273166 L37.1647381,32.7696691 L37.958589,31.0293739 L40.2811394,29.5764669 L36.6122607,24.8452057 L36.5586222,24.8026297 L35.2337493,25.297576 L34.2950742,24.0735152 L31.9349768,24.0735152 L32.0315262,27.1336673 L30.9158438,29.6137209 L29.6767927,27.5642174 L26.1849213,26.0639445 L25.6431716,24.7174776 L30.9212077,20.0607245 L30.4813713,19.4007961 L30.0522627,18.7621556 L19.6785618,19.4167621 L13.4940338,17.804195 L11.2841245,18.0649732 L9.31022481,18.2938193 L4.86895059,17.9005233 C3.61917174,20.0873345 2.61076648,22.4242263 1.87591797,24.8824597 L1.87591797,24.888314 C1.8785999,24.8899106 1.88128183,24.890975 1.88450014,24.8925716 C2.01001441,24.954839 2.13070121,25.0117844 2.23529644,25.0639401 C2.54640019,25.2182782 2.75022678,25.324186 2.75022678,25.324186 L1.54443156,26.0932156 L1.53263107,26.1011986 L1.38780692,26.691941 L1.39907102,26.6887478 L2.26157934,26.4471288 L3.65618236,26.0591547 L4.05847169,25.8989624 L4.97569136,24.1852773 L10.720383,25.286932 L10.8222963,25.30822 L14.6842739,32.700483 L14.9685583,35.600975 L19.6512062,43.2965921 L20.4343294,44.579195 L19.7263002,42.5142576 L18.9270854,40.1773658 L19.7102086,41.6622048 L22.070306,46.1433318 L28.029552,48.5808095 L28.0724628,48.5967755 L31.2210473,51.4440474 L30.0522627,49.5339803 L30.0522627,49.5339803 Z" id="Shape" fill="#2ECC71"></path>
                        <path d="M35.0309955,23.103314 L35.8505929,23.3438685 L35.8505929,20.9127773 L38.2600378,20.5498166 L36.1863704,19.3225626 L34.756366,17.3587433 L33.065678,16.5114803 L30.8836607,15.418873 L29.0427847,16.5976968 L27.5655783,17.5455456 L30.2753992,17.9367129 L32.3072285,18.2299553 L32.5823944,18.7461896 L33.8257366,21.0990474 L31.9832515,22.1607871 L35.0309955,23.103314 Z" id="Shape" fill="#2ECC71"></path>
                    </g>
                </g>
            </g>
        </g>
    </g>
</svg>