<?xml version="1.0" encoding="UTF-8" standalone="no"?>
<svg width="70px" height="70px" viewBox="0 0 70 70" version="1.1" xmlns="http://www.w3.org/2000/svg" xmlns:xlink="http://www.w3.org/1999/xlink" xmlns:sketch="http://www.bohemiancoding.com/sketch/ns">
    <!-- Generator: Sketch 3.3.3 (12072) - http://www.bohemiancoding.com/sketch -->
    <title>badge</title>
    <desc>Created with Sketch.</desc>
    <defs></defs>
    <g id="SPD3.0" stroke="none" stroke-width="1" fill="none" fill-rule="evenodd" sketch:type="MSPage">
        <g id="001-FTUX" sketch:type="MSArtboardGroup" transform="translate(-697.000000, -253.000000)">
            <g id="Steps" sketch:type="MSLayerGroup" transform="translate(323.000000, 244.000000)">
                <g id="badge" sketch:type="MSShapeGroup">
                    <g transform="translate(374.000000, 9.000000)">
                        <circle id="Oval" fill="#686868" cx="35" cy="35" r="35"></circle>
                        <path d="M21,55.3763838 L21,14.6236162 C21,13.7311685 21.745899,13 22.6575533,13 L47.3424467,13 C48.2535485,13 49,13.7311685 49,14.6236162 L49,55.3763838 C49,56.2693727 48.2535485,57 47.3424467,57 L22.6575533,57 C21.745899,57 21,56.2693727 21,55.3763838 Z" id="Shape" fill="#FFFFFF"></path>
                        <path d="M49,19 L49,14.6342836 C49,13.7359724 48.2535485,13 47.3424467,13 L22.6575533,13 C21.745899,13 21,13.7359724 21,14.6342836 L21,19 L50,19 L49,19 Z" id="Shape" fill="#29D682"></path>
                        <rect id="Rectangle-path" fill="#E4E8DC" x="24" y="22" width="18" height="18"></rect>
                        <rect id="Rectangle-path" fill="#E4E8DC" x="44" y="22" width="2" height="18"></rect>
                        <g id="Group" transform="translate(26.000000, 25.000000)" fill="#FFFFFF">
                            <circle id="Oval" cx="7" cy="3" r="3"></circle>
                            <path d="M13,15 C12.8999646,11.7266776 10.0328587,9 6.5,9 C2.96829117,9 0.100610295,11.7266776 1.63424829e-13,15 L13,15 L13,15 Z" id="Shape"></path>
                        </g>
                        <path d="M39,15.5 C39,15.776 38.6805714,16 38.2857143,16 L31.7142857,16 C31.32,16 31,15.776 31,15.5 L31,15.5 C31,15.224 31.32,15 31.7142857,15 L38.2857143,15 C38.6805714,15 39,15.224 39,15.5 L39,15.5 L39,15.5 Z" id="Shape" fill="#686868"></path>
                        <rect id="Rectangle-path" fill="#E4E8DC" x="24" y="42" width="22" height="2"></rect>
                        <rect id="Rectangle-path" fill="#FFFFFF" x="24" y="44" width="22" height="2"></rect>
                        <rect id="Rectangle-path" fill="#E4E8DC" x="24" y="46" width="22" height="2"></rect>
                        <rect id="Rectangle-path" fill="#FFFFFF" x="24" y="49" width="22" height="2"></rect>
                        <rect id="Rectangle-path" fill="#E4E8DC" x="24" y="51" width="16" height="2"></rect>
                    </g>
                </g>
            </g>
        </g>
    </g>
</svg>